<svg xmlns="http://www.w3.org/2000/svg" viewBox="0 0 100 100">
  <!-- Tło -->
  <rect width="100" height="100" rx="20" fill="#1e293b"/>
  
  <!-- Quiz - ikona dokumentu z checkmarkiem -->
  <g transform="translate(15, 20)">
    <!-- Dokument -->
    <rect x="0" y="0" width="30" height="35" rx="3" fill="#3b82f6" opacity="0.9"/>
    <!-- Linie tekstu -->
    <line x1="5" y1="8" x2="25" y2="8" stroke="#e0f2fe" stroke-width="2" stroke-linecap="round"/>
    <line x1="5" y1="14" x2="25" y2="14" stroke="#e0f2fe" stroke-width="2" stroke-linecap="round"/>
    <line x1="5" y1="20" x2="20" y2="20" stroke="#e0f2fe" stroke-width="2" stroke-linecap="round"/>
    <!-- Checkmark -->
    <circle cx="15" cy="28" r="5" fill="#10b981"/>
    <path d="M 12 28 L 14 30 L 18 26" stroke="white" stroke-width="2" fill="none" stroke-linecap="round" stroke-linejoin="round"/>
  </g>
  
  <!-- Trening - ikona hantla -->
  <g transform="translate(55, 20)">
    <!-- Hantel -->
    <rect x="0" y="15" width="5" height="10" rx="1" fill="#f59e0b"/>
    <rect x="5" y="17" width="20" height="6" rx="1" fill="#f59e0b"/>
    <rect x="25" y="15" width="5" height="10" rx="1" fill="#f59e0b"/>
    <!-- Akcent -->
    <circle cx="15" cy="20" r="2" fill="#fbbf24"/>
  </g>
  
  <!-- Dekoracyjny akcent na dole -->
  <path d="M 30 70 Q 50 65 70 70" stroke="#3b82f6" stroke-width="3" fill="none" stroke-linecap="round"/>
  <circle cx="50" cy="67" r="4" fill="#10b981"/>
</svg>

